<svg width="512" height="512" viewBox="0 0 512 512" fill="none" xmlns="http://www.w3.org/2000/svg">
<g clip-path="url(#clip0_948_10286)">
<path d="M412 0H100C44.7715 0 0 44.7715 0 100V412C0 467.228 44.7715 512 100 512H412C467.228 512 512 467.228 512 412V100C512 44.7715 467.228 0 412 0Z" fill="#262626"/>
<g clip-path="url(#clip1_948_10286)">
<path fill-rule="evenodd" clip-rule="evenodd" d="M312.86 107.128C305.411 99.879 295.427 95.8226 285.033 95.8226C274.639 95.8226 264.655 99.879 257.206 107.128L108.805 252.662C106.322 255.076 102.995 256.426 99.5319 256.426C96.0688 256.426 92.7422 255.076 90.2588 252.662C89.043 251.479 88.0766 250.065 87.4167 248.503C86.7568 246.941 86.4167 245.262 86.4167 243.566C86.4167 241.87 86.7568 240.191 87.4167 238.629C88.0766 237.067 89.043 235.653 90.2588 234.47L238.66 88.9368C251.073 76.8562 267.711 70.0967 285.033 70.0967C302.355 70.0967 318.993 76.8562 331.406 88.9368C338.589 95.9221 344.016 104.509 347.242 113.995C350.468 123.481 351.402 133.596 349.968 143.512C360.016 142.083 370.258 142.98 379.904 146.134C389.55 149.288 398.344 154.614 405.607 161.703L406.378 162.474C412.457 168.386 417.289 175.457 420.588 183.268C423.888 191.08 425.588 199.474 425.588 207.953C425.588 216.433 423.888 224.827 420.588 232.638C417.289 240.45 412.457 247.521 406.378 253.433L272.16 385.045C271.755 385.438 271.433 385.909 271.213 386.43C270.993 386.95 270.88 387.509 270.88 388.074C270.88 388.639 270.993 389.198 271.213 389.718C271.433 390.239 271.755 390.71 272.16 391.103L299.725 418.144C300.941 419.327 301.907 420.741 302.567 422.303C303.227 423.865 303.567 425.544 303.567 427.24C303.567 428.936 303.227 430.615 302.567 432.177C301.907 433.739 300.941 435.154 299.725 436.336C297.242 438.75 293.915 440.1 290.452 440.1C286.989 440.1 283.662 438.75 281.179 436.336L253.614 409.311C250.775 406.552 248.518 403.252 246.977 399.605C245.436 395.959 244.641 392.04 244.641 388.082C244.641 384.123 245.436 380.205 246.977 376.558C248.518 372.912 250.775 369.612 253.614 366.853L387.831 235.226C391.477 231.677 394.374 227.434 396.353 222.748C398.331 218.061 399.351 213.025 399.351 207.938C399.351 202.851 398.331 197.815 396.353 193.128C394.374 188.442 391.477 184.199 387.831 180.651L387.06 179.895C379.62 172.653 369.649 168.597 359.266 168.589C348.883 168.58 338.905 172.619 331.453 179.849L220.884 288.29L220.853 288.321L219.343 289.816C216.858 292.234 213.529 293.588 210.062 293.588C206.595 293.588 203.265 292.234 200.781 289.816C199.565 288.634 198.599 287.219 197.939 285.657C197.279 284.095 196.939 282.416 196.939 280.72C196.939 279.024 197.279 277.345 197.939 275.783C198.599 274.221 199.565 272.807 200.781 271.624L312.906 161.657C316.542 158.107 319.43 153.864 321.4 149.18C323.37 144.496 324.383 139.465 324.379 134.383C324.375 129.301 323.353 124.272 321.375 119.591C319.397 114.91 316.502 110.673 312.86 107.128Z" fill="#9064EA"/>
<path fill-rule="evenodd" clip-rule="evenodd" d="M294.312 143.504C295.528 142.321 296.494 140.907 297.154 139.345C297.814 137.783 298.154 136.104 298.154 134.408C298.154 132.712 297.814 131.033 297.154 129.471C296.494 127.909 295.528 126.495 294.312 125.312C291.828 122.894 288.498 121.541 285.031 121.541C281.564 121.541 278.234 122.894 275.75 125.312L165.999 232.951C159.92 238.863 155.088 245.934 151.788 253.745C148.489 261.557 146.789 269.951 146.789 278.43C146.789 286.91 148.489 295.304 151.788 303.115C155.088 310.927 159.92 317.998 165.999 323.91C178.414 335.987 195.052 342.744 212.372 342.744C229.693 342.744 246.33 335.987 258.746 323.91L368.512 216.27C369.728 215.088 370.694 213.674 371.354 212.112C372.014 210.549 372.354 208.871 372.354 207.175C372.354 205.479 372.014 203.8 371.354 202.238C370.694 200.675 369.728 199.261 368.512 198.079C366.028 195.66 362.698 194.307 359.231 194.307C355.765 194.307 352.435 195.66 349.951 198.079L240.199 305.718C232.75 312.967 222.767 317.024 212.372 317.024C201.978 317.024 191.994 312.967 184.545 305.718C180.9 302.17 178.002 297.927 176.024 293.24C174.045 288.553 173.026 283.518 173.026 278.43C173.026 273.343 174.045 268.308 176.024 263.621C178.002 258.934 180.9 254.691 184.545 251.143L294.312 143.504Z" fill="#9064EA"/>
</g>
</g>
<defs>
<clipPath id="clip0_948_10286">
<rect width="512" height="512" fill="white"/>
</clipPath>
<clipPath id="clip1_948_10286">
<rect width="370" height="370" fill="white" transform="translate(71 71)"/>
</clipPath>
</defs>
</svg>